HIERARCHY
ROOT hip
{
	OFFSET 0.00000 0.00000 0.00000
	CHANNELS 6 Xposition Yposition Zposition Zrotation Yrotation Xrotation 
	JOINT lhipjoint
	{
		OFFSET 0 0 0
		CHANNELS 3 Zrotation Yrotation Xrotation
		JOINT lfemur
		{
			OFFSET 1.57314 -1.85774 0.63783
			CHANNELS 3 Zrotation Yrotation Xrotation
			JOINT ltibia
			{
				OFFSET 2.57982 -7.08799 0.00000
				CHANNELS 3 Zrotation Yrotation Xrotation
				JOINT lfoot
				{
					OFFSET 2.63993 -7.25315 0.00000
					CHANNELS 3 Zrotation Yrotation Xrotation
					JOINT ltoes
					{
						OFFSET 0.16864 -0.46332 2.12791
						CHANNELS 3 Zrotation Yrotation Xrotation
						End Site
						{
							OFFSET 0.00000 -0.00000 1.09718
						}
					}
				}
			}
		}
	}
	JOINT rhipjoint
	{
		OFFSET 0 0 0
		CHANNELS 3 Zrotation Yrotation Xrotation
		JOINT rfemur
		{
			OFFSET -1.56006 -1.85774 0.63784
			CHANNELS 3 Zrotation Yrotation Xrotation
			JOINT rtibia
			{
				OFFSET -2.54246 -6.98536 0.00000
				CHANNELS 3 Zrotation Yrotation Xrotation
				JOINT rfoot
				{
					OFFSET -2.65791 -7.30256 0.00000
					CHANNELS 3 Zrotation Yrotation Xrotation
					JOINT rtoes
					{
						OFFSET -0.18435 -0.50650 2.16316
						CHANNELS 3 Zrotation Yrotation Xrotation
						End Site
						{
							OFFSET -0.00000 -0.00000 1.11780
						}
					}
				}
			}
		}
	}
	JOINT lowerback
	{
		OFFSET 0 0 0
		CHANNELS 3 Zrotation Yrotation Xrotation
		JOINT upperback
		{
			OFFSET -0.00136 1.92812 -0.29638
			CHANNELS 3 Zrotation Yrotation Xrotation
			JOINT thorax
			{
				OFFSET -0.00528 1.96223 -0.02928
				CHANNELS 3 Zrotation Yrotation Xrotation
				JOINT lowerneck
				{
					OFFSET 0 0 0
					CHANNELS 3 Zrotation Yrotation Xrotation
					JOINT upperneck
					{
						OFFSET -0.01015 1.75586 0.07797
						CHANNELS 3 Zrotation Yrotation Xrotation
						JOINT head
						{
							OFFSET 0.05540 1.72452 0.04558
							CHANNELS 3 Zrotation Yrotation Xrotation
							End Site
							{
								OFFSET 0.02170 1.79958 0.00864
							}
						}
					}
				}
				JOINT lclavicle
				{
					OFFSET 0 0 0
					CHANNELS 3 Zrotation Yrotation Xrotation
					JOINT lhumerus
					{
						OFFSET 3.16292 1.29277 -0.65728
						CHANNELS 3 Zrotation Yrotation Xrotation
						JOINT lradius
						{
							OFFSET 5.52302 -0.00000 -0.00000
							CHANNELS 3 Zrotation Yrotation Xrotation
							JOINT lwrist
							{
								OFFSET 3.58675 -0.00000 -0.00000
								CHANNELS 3 Zrotation Yrotation Xrotation
								JOINT lhand
								{
									OFFSET 0 0 0
									CHANNELS 3 Zrotation Yrotation Xrotation
									JOINT lfingers
									{
										OFFSET 0.53641 -0.00000 -0.00000
										CHANNELS 3 Zrotation Yrotation Xrotation
										End Site
										{
											OFFSET 0.43247 -0.00000 -0.00000
										}
									}
								}
								JOINT lthumb
								{
									OFFSET 0 0 0
									CHANNELS 3 Zrotation Yrotation Xrotation
									End Site
									{
										OFFSET 0.43907 -0.00000 0.43907
									}
								}
							}
						}
					}
				}
				JOINT rclavicle
				{
					OFFSET 0 0 0
					CHANNELS 3 Zrotation Yrotation Xrotation
					JOINT rhumerus
					{
						OFFSET -3.08296 1.43376 -0.52927
						CHANNELS 3 Zrotation Yrotation Xrotation
						JOINT rradius
						{
							OFFSET -5.84780 -0.00000 0.00000
							CHANNELS 3 Zrotation Yrotation Xrotation
							JOINT rwrist
							{
								OFFSET -3.62717 -0.00000 -0.00000
								CHANNELS 3 Zrotation Yrotation Xrotation
								JOINT rhand
								{
									OFFSET 0 0 0
									CHANNELS 3 Zrotation Yrotation Xrotation
									JOINT rfingers
									{
										OFFSET -0.65052 -0.00000 -0.00000
										CHANNELS 3 Zrotation Yrotation Xrotation
										End Site
										{
											OFFSET -0.52446 -0.00000 -0.00000
										}
									}
								}
								JOINT rthumb
								{
									OFFSET 0 0 0
									CHANNELS 3 Zrotation Yrotation Xrotation
									End Site
									{
										OFFSET -0.53247 -0.00000 0.53247
									}
								}
							}
						}
					}
				}
			}
		}
	}
}
MOTION
Frames: 15
Frame Time: 0.033333
8.7143 17.7296 -1.6536 -180.3745 67.7019 -183.0545 -0.0000 0.0000 0.0000 -16.1819 -7.9902 -15.1818 0.4624 4.5037 12.2158 -0.9795 18.3181 -0.7722 0.1004 2.6172 7.3026 0.0000 -0.0000 -0.0000 25.1318 16.2792 5.1780 -5.9103 -13.9753 44.0304 0.0517 14.6862 0.7514 -0.6107 -1.4872 4.1829 2.9425 -8.8415 5.6467 4.9917 -11.2178 1.7583 4.2817 -5.5708 -0.6026 4.4087 -16.9009 3.0917 -6.0762 -20.5934 31.7883 -3.6331 -9.1582 8.5800 -0.0000 0.0000 -0.0000 -76.0595 -1.2268 28.0618 14.8591 -24.1463 -3.0017 -0.0000 -0.0000 -11.7401 35.0253 16.0514 10.9651 -7.1118 0.0000 -0.0000 7.2772 49.1819 0.7591 0.0000 0.0000 0.0000 84.2617 -16.0881 -7.8569 -7.1776 12.8697 -0.4117 0.0000 0.0000 12.6498 -21.2440 12.0528 -4.6298 7.1118 0.0000 0.0000 4.1116 -17.0352 2.7549
8.5666 17.9935 -1.5650 -180.2353 68.1324 -182.9401 -0.0000 0.0000 0.0000 -15.7849 -7.7845 -15.5930 0.3599 4.5870 12.1656 -0.9062 18.4082 -0.4543 0.0023 2.4993 7.0079 0.0000 -0.0000 -0.0000 25.5313 16.2394 5.8528 -5.7734 -13.5085 42.7952 -0.0741 14.9816 -1.6119 -0.5327 -1.6571 4.5878 3.1129 -8.6903 5.6906 4.9917 -11.0252 1.8175 4.1771 -5.4710 -0.6913 4.6488 -16.7948 2.8198 -6.1407 -20.5884 31.8159 -3.6740 -9.1867 8.5719 -0.0000 0.0000 -0.0000 -76.0400 -1.2389 28.0835 14.6780 -23.9561 -2.9145 -0.0000 -0.0000 -11.4141 34.6349 15.7847 10.5083 -7.2206 0.0000 -0.0000 6.9953 48.7138 0.6663 0.0000 0.0000 0.0000 86.8418 -14.0263 -8.4465 -6.8766 12.3820 -0.3312 0.0000 0.0000 13.0298 -25.8885 10.8029 -5.4367 7.2206 0.0000 0.0000 1.1638 -18.3457 0.4844
8.4626 17.9459 -1.4790 -179.6361 68.5809 -182.5462 -0.0000 0.0000 0.0000 -15.1392 -7.5023 -15.8165 0.4689 4.4612 12.0083 -0.8844 18.5289 -0.4532 -0.0648 2.6185 7.3782 0.0000 -0.0000 -0.0000 26.0930 16.0352 6.4864 -5.2622 -13.3959 41.5202 -0.1104 14.4464 -3.9593 -0.6251 -2.1158 5.9822 3.3590 -8.4978 6.1950 5.1366 -10.7336 1.9567 4.1793 -5.3279 -0.7582 4.5532 -16.9067 2.7465 -6.0866 -20.6692 31.6531 -3.6705 -9.1955 8.5495 -0.0000 0.0000 -0.0000 -76.1618 -1.4057 28.0651 14.4451 -23.5751 -2.8301 -0.0000 -0.0000 -10.7616 34.5202 15.7305 10.4457 -7.2093 0.0000 -0.0000 6.8816 48.6376 0.6422 0.0000 0.0000 0.0000 85.4899 -14.6083 -8.3573 -7.3116 12.9779 -0.4891 0.0000 0.0000 13.1594 -20.6846 12.7333 -4.6862 7.2093 0.0000 0.0000 4.7909 -16.8043 3.2499
8.3310 18.0026 -1.3816 -177.5110 68.6344 -180.6682 -0.0000 0.0000 0.0000 -13.8123 -7.4225 -15.5769 0.3948 4.0046 10.7587 -0.8539 19.1810 -0.0159 -0.1004 2.4875 7.0200 0.0000 -0.0000 -0.0000 27.2913 15.6003 6.7720 -4.9355 -13.1364 40.3266 -0.2688 12.6434 -6.4131 -0.5325 -1.5210 4.3238 3.9610 -8.5689 6.7147 5.5783 -10.7563 1.9355 4.3232 -5.3456 -1.0009 4.0085 -16.8240 2.7885 -5.8924 -20.5813 31.4209 -3.5606 -9.1579 8.5014 0.0000 0.0000 -0.0000 -76.6193 -1.5254 27.4047 14.1745 -23.1593 -2.7345 -0.0000 -0.0000 -9.8366 34.6356 15.7697 10.4729 -7.2348 0.0000 -0.0000 7.0206 48.6783 0.6664 0.0000 0.0000 0.0000 84.7040 -14.3653 -8.1207 -7.4615 13.1038 -0.5817 0.0000 0.0000 14.1435 -19.3965 13.3510 -4.5089 7.2348 0.0000 0.0000 5.7671 -16.4112 4.0141
8.1905 18.0906 -1.2708 -175.9430 68.5733 -179.2367 -0.0000 0.0000 0.0000 -12.6485 -7.3621 -15.1797 0.2190 3.3995 9.0103 -0.8059 19.7647 1.2942 -0.1781 1.6135 4.6107 0.0000 -0.0000 -0.0000 27.9873 14.5833 6.4326 -4.7638 -12.7865 39.2536 -0.4084 11.2801 -8.2798 -0.3830 -0.2545 0.7247 4.5471 -8.6120 7.0406 5.6431 -10.7540 1.9352 4.0771 -5.3486 -1.2008 4.0935 -16.7765 2.7069 -5.7630 -20.6469 31.3436 -3.5863 -9.1675 8.4943 0.0000 0.0000 -0.0000 -76.3950 -1.6901 27.5290 13.9843 -22.8843 -2.6673 -0.0000 -0.0000 -9.8065 34.8153 16.1958 10.7631 -7.2667 0.0000 -0.0000 7.2175 49.1789 0.7779 0.0000 0.0000 0.0000 85.0337 -13.8539 -8.2242 -7.5780 13.2290 -0.6435 0.0000 0.0000 15.4395 -20.4234 13.2316 -4.6975 7.2667 0.0000 0.0000 5.1366 -16.5861 3.5750
8.1159 18.2672 -1.2721 -187.2693 70.0282 -190.9932 -0.0000 0.0000 0.0000 -16.9493 -4.9841 -12.8086 -0.0259 2.6392 6.7794 -0.9930 19.6433 2.1745 -0.4047 0.5173 1.7700 0.0000 -0.0000 -0.0000 23.2896 14.9272 9.4105 -4.6760 -12.4427 38.3169 0.2112 14.3501 -7.3494 -1.2547 -8.2821 23.5403 1.7861 -7.8927 7.1842 3.9510 -10.0524 2.6311 3.8100 -4.9783 -0.6163 4.1874 -16.9175 2.6226 -5.6117 -20.7854 31.3893 -3.3990 -9.2852 8.4011 -0.0000 0.0000 -0.0000 -76.0380 -1.9210 28.3130 13.8361 -22.5384 -2.7745 -0.0000 -0.0000 -10.2465 35.0879 16.4188 11.1362 -7.3377 0.0000 -0.0000 7.5080 49.5514 0.8776 0.0000 0.0000 0.0000 85.6634 -13.0148 -8.6775 -7.6054 13.3071 -0.5988 0.0000 0.0000 16.4989 -21.5389 13.3629 -5.1020 7.3377 0.0000 0.0000 4.5264 -16.6086 3.0501
7.9726 18.1894 -1.1899 -186.7183 70.5021 -190.4560 -0.0000 0.0000 0.0000 -15.9661 -4.2581 -11.9899 -0.1021 1.5905 4.1599 -0.7128 20.3726 3.0064 -0.1656 0.5516 1.7090 0.0000 -0.0000 -0.0000 23.4553 13.6575 8.1969 -4.4687 -12.2514 37.4685 -0.5403 12.8705 -10.9577 -0.4071 -1.4845 4.2587 2.0864 -7.8229 7.4165 4.0788 -9.9420 2.5399 3.7775 -4.9364 -0.7786 3.9426 -16.8487 2.9144 -5.3484 -20.7748 31.1837 -3.4209 -9.2313 8.3582 0.0000 0.0000 -0.0000 -76.3103 -2.1597 27.8907 13.3942 -22.0784 -2.4625 -0.0000 -0.0000 -9.6574 34.9031 16.1468 10.8381 -7.3067 0.0000 -0.0000 7.3092 49.1762 0.7876 0.0000 0.0000 0.0000 85.5117 -12.6133 -8.6066 -7.9193 13.6618 -0.7761 0.0000 0.0000 17.1276 -20.9570 13.5730 -4.9739 7.3067 0.0000 0.0000 4.8597 -16.3349 3.3689
7.8365 18.2223 -1.1002 -184.3304 71.1688 -188.0858 -0.0000 0.0000 0.0000 -14.1702 -3.1590 -10.5142 -0.3209 0.0150 0.0673 -0.7952 21.9975 3.6389 -0.0842 0.8001 2.3273 0.0000 -0.0000 -0.0000 24.8288 13.7195 7.6552 -4.4684 -12.0074 36.9538 -0.7283 10.2124 -12.6160 -0.2726 0.8872 -2.4298 2.9828 -7.7530 7.5328 4.3130 -9.7667 2.4570 3.5051 -4.8602 -0.9356 3.8160 -16.8139 3.2724 -5.1907 -20.7883 30.9506 -3.3896 -9.2332 8.2291 0.0000 0.0000 -0.0000 -76.6245 -2.5006 26.9458 12.9055 -21.3348 -2.2761 -0.0000 -0.0000 -8.7588 34.5483 15.5331 10.2574 -7.3135 0.0000 -0.0000 6.9743 48.3700 0.6179 0.0000 0.0000 0.0000 84.8863 -12.1335 -8.3996 -8.1266 13.9660 -0.8385 0.0000 0.0000 17.4077 -19.0775 14.3362 -4.6414 7.3135 0.0000 0.0000 6.1883 -15.7919 4.4427
7.7107 18.1643 -1.0049 -179.2583 72.3692 -182.5371 -0.0000 0.0000 0.0000 -11.6369 -2.4460 -11.8706 -0.3428 0.0446 0.0624 -0.7899 21.9451 2.9565 0.0421 0.4571 1.2558 0.0000 -0.0000 -0.0000 27.1559 15.6026 7.3649 -4.4218 -11.7992 36.4517 -0.8061 8.9108 -13.5070 -0.2554 0.6262 -1.7327 4.6442 -7.3979 7.1715 4.6935 -9.1389 2.2675 2.8950 -4.5543 -1.0706 4.2709 -16.9817 3.4487 -5.3114 -21.0065 30.8317 -3.4692 -9.3071 8.1098 0.0000 0.0000 -0.0000 -76.7437 -2.9215 26.7239 12.4488 -20.6380 -2.1160 -0.0000 -0.0000 -7.9456 34.5628 15.5624 10.3026 -7.2809 0.0000 -0.0000 6.9464 48.4269 0.6197 0.0000 0.0000 0.0000 84.8260 -11.7327 -8.7545 -8.4345 14.4111 -0.9544 0.0000 0.0000 17.4659 -18.6499 14.6696 -4.6465 7.2809 0.0000 0.0000 6.4076 -15.3480 4.6559
7.5809 18.1547 -0.7609 -178.9384 70.3063 -181.9422 -0.0000 0.0000 0.0000 -10.5313 -4.8187 -12.8462 -0.3509 0.0469 0.0619 -0.8763 22.1475 3.0584 0.0603 -0.1928 -0.5725 0.0000 -0.0000 -0.0000 27.9432 15.2473 6.2601 -4.3382 -11.7085 36.0844 -0.8452 8.1111 -14.0876 -0.2135 -0.4081 1.1089 2.6177 -7.8274 7.9103 5.2534 -9.9124 1.9356 4.7067 -4.9333 -1.5554 4.1568 -16.8933 3.7025 -5.2387 -21.0555 30.7006 -3.5099 -9.3736 8.1213 0.0000 0.0000 -0.0000 -76.8853 -3.0965 26.5747 12.0467 -20.0421 -1.9902 -0.0000 -0.0000 -7.2016 34.8319 16.0567 10.6556 -7.2841 0.0000 -0.0000 7.1991 49.0235 0.7475 0.0000 0.0000 0.0000 84.6395 -11.3762 -8.8152 -8.7607 14.7131 -1.1837 0.0000 0.0000 17.5947 -21.4939 13.7471 -5.1578 7.2841 0.0000 0.0000 4.4463 -16.0210 3.1378
7.4652 18.2066 -0.6703 -179.4330 71.1389 -182.8684 -0.0000 0.0000 -0.0000 -10.0147 -3.9809 -12.6604 -0.3361 0.0543 0.0581 -0.8366 21.4687 1.9192 0.0051 -0.3960 -1.1138 0.0000 -0.0000 -0.0000 27.7400 14.9808 6.3780 -4.2241 -11.6023 35.6444 -0.8865 8.9062 -14.2359 -0.2706 -0.9919 2.8141 2.4931 -7.6958 8.3367 5.1678 -9.7533 2.1434 4.6862 -4.8531 -1.5670 3.7961 -16.7025 3.8218 -5.2297 -20.7425 30.9237 -3.3850 -9.2573 8.1253 0.0000 0.0000 -0.0000 -76.9034 -3.0044 26.2521 11.7236 -19.5672 -1.8650 -0.0000 -0.0000 -6.9552 34.7048 16.1316 10.6468 -7.3108 0.0000 -0.0000 7.1002 49.0786 0.7513 0.0000 0.0000 0.0000 84.5974 -10.8935 -8.4136 -8.8955 14.9338 -1.1998 0.0000 0.0000 18.5937 -18.6159 15.2434 -4.8873 7.3108 0.0000 0.0000 6.5672 -14.8617 4.7754
7.3650 18.1547 -0.6089 -177.2998 72.2998 -180.7051 -0.0000 -0.0000 -0.0000 -8.6313 -2.9124 -13.0196 -0.4021 0.1106 0.0558 -0.8017 20.6349 0.9432 0.1408 -1.2233 -3.5118 0.0000 -0.0000 -0.0000 28.3260 15.3506 5.9615 -4.3207 -11.4181 35.4826 -0.9307 9.4420 -14.6044 -0.2034 -1.0693 2.9978 3.6522 -7.5653 7.9838 5.0851 -9.4660 2.1273 3.9149 -4.7130 -1.5516 3.9121 -16.5248 3.8867 -5.5079 -20.4639 31.3873 -3.4207 -9.1168 8.1718 0.0000 0.0000 -0.0000 -76.8370 -2.8464 26.1801 11.3898 -19.0710 -1.7605 -0.0000 -0.0000 -6.6245 34.2623 16.0351 10.4156 -7.2809 0.0000 -0.0000 6.6278 48.8944 0.6693 0.0000 0.0000 0.0000 84.5904 -10.4442 -8.1244 -8.9153 15.0769 -1.1436 0.0000 0.0000 20.0217 -19.0262 15.3908 -5.0504 7.2809 0.0000 0.0000 6.2067 -14.5399 4.5652
7.2928 17.9876 -0.5524 -180.9891 73.4546 -184.0419 -0.0000 -0.0000 -0.0000 -9.3483 -1.7966 -13.1987 -0.4390 0.1402 0.0529 -0.6569 19.3554 1.0581 0.7219 -3.9438 -11.4235 0.0000 0.0000 -0.0000 27.2053 16.7532 6.2562 -4.4092 -11.2875 35.3674 -0.9004 10.5562 -14.8743 -0.2910 -2.5289 7.1000 2.9771 -7.2720 7.3701 4.5019 -9.1506 2.1551 3.6318 -4.5561 -1.2528 4.3356 -16.5094 3.9592 -5.9500 -20.3630 31.6710 -3.5625 -9.0684 8.1603 0.0000 -0.0000 -0.0000 -76.9660 -3.0197 25.7932 10.9141 -18.3407 -1.6387 -0.0000 -0.0000 -5.7624 34.0051 15.7855 10.2767 -7.2019 0.0000 -0.0000 6.2773 48.6382 0.5805 0.0000 0.0000 0.0000 84.1458 -9.9637 -8.0065 -8.9213 15.1411 -1.1259 0.0000 0.0000 20.9528 -19.3026 15.5438 -5.2504 7.2019 0.0000 0.0000 5.8116 -13.9921 4.3143
7.2563 17.9545 -0.4987 -197.5563 73.5129 -200.7859 -0.0000 0.0000 -0.0000 -14.1396 -0.6178 -11.9511 -0.4503 0.1366 0.0503 -0.8336 17.6728 0.0863 0.7981 -4.9439 -14.1496 0.0000 -0.0000 -0.0000 22.4276 18.2457 8.2652 -4.3928 -11.3518 35.4015 -0.2863 13.7823 -14.0866 -1.1414 -8.3944 23.8075 -1.2543 -6.7269 7.4937 2.9274 -8.8450 2.6551 4.3385 -4.3861 -0.6799 4.5429 -16.5810 3.8412 -6.2543 -20.4036 32.0869 -3.5880 -9.1698 8.2328 -0.0000 -0.0000 -0.0000 -76.9477 -3.1350 26.0842 10.6358 -17.7301 -1.7250 -0.0000 -0.0000 -5.7048 33.9234 15.9418 10.5254 -7.1944 0.0000 -0.0000 6.1359 48.9113 0.5980 0.0000 0.0000 0.0000 83.8387 -9.5485 -8.1063 -9.0707 15.4459 -1.1152 0.0000 0.0000 21.1423 -18.3659 16.0435 -5.2825 7.1944 0.0000 0.0000 6.4413 -13.4841 4.7193
7.1724 17.7467 -0.4201 -206.4945 73.1672 -209.9145 -0.0000 0.0000 -0.0000 -16.3956 0.2496 -11.2412 -0.3022 0.0250 0.0524 -0.6539 16.1733 -2.9421 0.3866 -2.0903 -5.9088 0.0000 -0.0000 -0.0000 19.4479 17.4114 7.6736 -4.1939 -11.5390 35.3131 -0.7240 13.5505 -15.3999 -0.6577 -4.9348 14.0236 -3.7263 -6.4385 7.9945 2.2034 -8.7199 2.8206 4.9753 -4.3233 -0.6069 4.7154 -16.4712 3.8928 -6.4974 -20.3682 32.4640 -3.8293 -9.1528 8.3881 0.0000 -0.0000 -0.0000 -76.9603 -2.8666 26.5604 10.4498 -17.5609 -1.5689 -0.0000 -0.0000 -6.0220 33.2362 16.3296 10.4965 -7.1311 0.0000 -0.0000 5.3799 49.2451 0.5623 0.0000 0.0000 0.0000 83.5941 -9.2235 -7.8117 -9.3618 15.8686 -1.2292 0.0000 0.0000 20.9981 -17.5592 16.1256 -5.1493 7.1311 0.0000 0.0000 6.8308 -13.1887 5.0039
